<svg width="26" height="24" viewBox="0 0 26 24" fill="none" xmlns="http://www.w3.org/2000/svg">
<path d="M15.7091 12.5609C15.5336 12.5576 15.3622 12.5082 15.2122 12.4179L12.827 11.0083L10.4567 12.4179C10.3448 12.4846 10.2207 12.5287 10.0916 12.5478C9.96248 12.567 9.83083 12.5607 9.70417 12.5293C9.5775 12.498 9.45831 12.4422 9.35338 12.3651C9.24846 12.2881 9.15986 12.1913 9.09264 12.0803C9.02543 11.9693 8.98092 11.8463 8.96165 11.7182C8.94238 11.5901 8.94873 11.4596 8.98034 11.3339C9.01195 11.2083 9.06819 11.0901 9.14587 10.986C9.22354 10.882 9.32112 10.7941 9.43303 10.7274L12.827 8.70669L16.2209 10.7274C16.4085 10.8378 16.5543 11.0064 16.6358 11.2071C16.7172 11.4079 16.7298 11.6296 16.6716 11.8382C16.6134 12.0467 16.4876 12.2305 16.3136 12.3611C16.1397 12.4917 15.9272 12.5619 15.7091 12.5609Z" fill="url(#paint0_linear_1311_7178)"/>
<path d="M3.48495 23.6551C3.31525 23.6512 3.14736 23.6196 2.98803 23.5615C2.39173 23.3594 1.58673 22.7483 1.24882 21.0233V20.9592C0.888953 18.224 0.81236 15.4594 1.02024 12.7087C1.29852 9.2045 1.89481 7.74564 2.32216 6.95213C3.36865 5.07516 4.9364 3.53561 6.83913 2.51639L7.02299 2.41289H7.23666C7.89215 2.35683 8.54329 2.56093 9.04726 2.9804C9.55123 3.39987 9.86689 4.00048 9.92498 4.65048L10.7896 14.3845C11.0272 16.0696 10.6519 17.7837 9.73118 19.2194C9.31378 19.8404 8.63797 20.3826 7.29629 21.4619C5.19931 23.1623 4.20548 23.6551 3.48495 23.6551ZM3.2017 20.698C3.24449 21.0499 3.36863 21.3872 3.56445 21.6837C4.46012 21.2167 5.29456 20.6423 6.04903 19.9735C6.7916 19.4485 7.47322 18.8435 8.08142 18.1696C8.74209 17.1103 9.00103 15.8524 8.81189 14.621L7.94726 4.77862C7.94314 4.71247 7.92562 4.64782 7.89574 4.58854C7.86585 4.52926 7.82422 4.47657 7.77333 4.43362C7.71543 4.3863 7.64748 4.3526 7.57457 4.33505C6.10735 5.16834 4.90294 6.39023 4.09615 7.86392C3.88248 8.24342 3.28121 9.36222 3.00294 12.8615C2.79956 15.4736 2.86616 18.0994 3.2017 20.698Z" fill="url(#paint1_linear_1311_7178)"/>
<path d="M22.169 23.6551C21.4534 23.6551 20.4596 23.1622 18.3577 21.457C17.016 20.3776 16.3402 19.8354 15.9228 19.2144C15.0019 17.7733 14.6284 16.0541 14.8693 14.3647L15.724 4.60608C15.7821 3.95608 16.0977 3.35547 16.6017 2.936C17.1057 2.51653 17.7568 2.31243 18.4123 2.36849H18.626L18.79 2.49171C20.6927 3.51093 22.2605 5.05048 23.3069 6.92744C23.7343 7.72095 24.3306 9.18474 24.6089 12.684C24.822 15.4359 24.7504 18.2021 24.3952 20.9394V21.0035C24.0573 22.7285 23.2722 23.3397 22.6759 23.5467C22.5143 23.6109 22.3429 23.6475 22.169 23.6551ZM18.0794 4.34486C18.0065 4.36241 17.9385 4.39611 17.8806 4.44343C17.7802 4.52788 17.7176 4.64842 17.7067 4.77858L16.8421 14.5569C16.6498 15.7947 16.9088 17.0598 17.5725 18.1252C18.1807 18.7991 18.8624 19.4041 19.6049 19.9291C20.3594 20.5979 21.1938 21.1723 22.0895 21.6393C22.2853 21.3428 22.4095 21.0055 22.4522 20.6536C22.7864 18.0615 22.853 15.4423 22.651 12.8368C22.3727 9.36217 21.7715 8.24338 21.5777 7.88359C20.7672 6.40348 19.5554 5.17772 18.0794 4.34486Z" fill="url(#paint2_linear_1311_7178)"/>
<g filter="url(#filter0_b_1311_7178)">
<path d="M12.5187 10.56C12.262 10.56 12.0158 10.4589 11.8343 10.2788C11.6528 10.0988 11.5508 9.85461 11.5508 9.6V0.96C11.5508 0.705392 11.6528 0.461212 11.8343 0.281177C12.0158 0.101143 12.262 0 12.5187 0C12.7754 0 13.0216 0.101143 13.2031 0.281177C13.3846 0.461212 13.4866 0.705392 13.4866 0.96V9.6C13.4866 9.85461 13.3846 10.0988 13.2031 10.2788C13.0216 10.4589 12.7754 10.56 12.5187 10.56Z" fill="#E8E4E4" fill-opacity="0.2"/>
</g>
<defs>
<filter id="filter0_b_1311_7178" x="-13.4492" y="-25" width="51.9375" height="60.5601" filterUnits="userSpaceOnUse" color-interpolation-filters="sRGB">
<feFlood flood-opacity="0" result="BackgroundImageFix"/>
<feGaussianBlur in="BackgroundImageFix" stdDeviation="12.5"/>
<feComposite in2="SourceAlpha" operator="in" result="effect1_backgroundBlur_1311_7178"/>
<feBlend mode="normal" in="SourceGraphic" in2="effect1_backgroundBlur_1311_7178" result="shape"/>
</filter>
<linearGradient id="paint0_linear_1311_7178" x1="0.90625" y1="12.2974" x2="24.1575" y2="12.4135" gradientUnits="userSpaceOnUse">
<stop stop-color="#FF7070"/>
<stop offset="1" stop-color="#FF7070" stop-opacity="0.65"/>
</linearGradient>
<linearGradient id="paint1_linear_1311_7178" x1="0.90625" y1="12.2974" x2="24.1575" y2="12.4135" gradientUnits="userSpaceOnUse">
<stop stop-color="#FF7070"/>
<stop offset="1" stop-color="#FF7070" stop-opacity="0.65"/>
</linearGradient>
<linearGradient id="paint2_linear_1311_7178" x1="0.90625" y1="12.2974" x2="24.1575" y2="12.4135" gradientUnits="userSpaceOnUse">
<stop stop-color="#FF7070"/>
<stop offset="1" stop-color="#FF7070" stop-opacity="0.65"/>
</linearGradient>
</defs>
</svg>
