<svg width="160" height="190" viewBox="0 0 160 190" fill="none" xmlns="http://www.w3.org/2000/svg">
<path d="M45.355 189.874C70.4039 189.874 90.71 187.406 90.71 184.361C90.71 181.317 70.4039 178.849 45.355 178.849C20.3061 178.849 0 181.317 0 184.361C0 187.406 20.3061 189.874 45.355 189.874Z" fill="#3399FF"/>
<path opacity="0.5" d="M45.355 189.874C70.4039 189.874 90.71 187.406 90.71 184.361C90.71 181.317 70.4039 178.849 45.355 178.849C20.3061 178.849 0 181.317 0 184.361C0 187.406 20.3061 189.874 45.355 189.874Z" fill="white"/>
<path d="M139.212 184.343C139.212 185.863 129.085 187.093 116.61 187.093C104.135 187.093 94.0078 185.837 94.0078 184.343C94.0078 182.849 104.129 181.599 116.61 181.599C129.091 181.599 139.212 182.849 139.212 184.343Z" fill="#3399FF"/>
<path opacity="0.5" d="M139.212 184.343C139.212 185.863 129.085 187.093 116.61 187.093C104.135 187.093 94.0078 185.837 94.0078 184.343C94.0078 182.849 104.129 181.599 116.61 181.599C129.091 181.599 139.212 182.849 139.212 184.343Z" fill="white"/>
<path d="M54.4004 2.76559C54.4004 2.76559 50.8907 0.00937265 46.8663 1.38434C42.8419 2.7593 39.7906 9.46462 38.7044 14.9143C37.6182 20.3639 33.4431 24.4951 34.4477 30.8865C35.4522 37.2778 42.7163 38.2761 51.4872 39.2179C60.2581 40.1596 65.0171 39.0923 69.1483 33.3287C73.2795 27.5652 71.5278 20.5522 69.0855 14.3492C66.6432 8.14616 62.5748 2.38888 59.1908 1.32156C55.8067 0.25423 54.4004 2.76559 54.4004 2.76559Z" fill="#130F26" stroke="#130F26" stroke-width="0.152495" stroke-linecap="round" stroke-linejoin="round"/>
<path d="M39.8984 35.5437C40.4907 35.81 41.1065 36.0202 41.738 36.1715" stroke="white" stroke-width="0.152495" stroke-linecap="round" stroke-linejoin="round"/>
<path d="M53.5245 7.2301C52.094 10.426 50.2809 13.4366 48.1251 16.1956C44.5338 20.8102 36.5917 25.1674 36.0831 30.0081C36.0014 30.6562 36.0582 31.3142 36.2498 31.9387C36.4413 32.5632 36.7633 33.1399 37.1944 33.6307" stroke="white" stroke-width="0.152495" stroke-linecap="round" stroke-linejoin="round"/>
<path d="M68.0935 30.3773C67.834 30.985 67.5009 31.5585 67.1016 32.085" stroke="white" stroke-width="0.152495" stroke-linecap="round" stroke-linejoin="round"/>
<path d="M65.0742 18.2469C65.0742 18.2469 69.1112 22.9055 68.722 27.878" stroke="white" stroke-width="0.152495" stroke-linecap="round" stroke-linejoin="round"/>
<path d="M52.7572 4.6632C51.1838 4.50305 49.5949 4.72215 48.1235 5.30218C46.6522 5.88221 45.3412 6.80627 44.3003 7.99702C44.1559 8.16026 44.024 8.32349 43.8984 8.48673" stroke="white" stroke-width="0.152495" stroke-linecap="round" stroke-linejoin="round"/>
<path d="M29.5951 123.002L28.8103 135.081C28.8103 135.081 25.4702 151.286 24.4154 157.966C23.3606 164.646 21.4269 174.805 21.0753 174.805C20.7237 174.805 14.9602 178.289 13.1143 181.133C11.2685 183.978 13.6103 185.183 16.1719 184.273C18.7335 183.362 22.2117 180.788 23.3481 177.731C24.4845 174.673 25.0495 173.537 25.1249 173.041C25.2002 172.545 37.3489 139.928 38.5543 136.444C39.7598 132.959 42.3213 122.726 42.3213 122.726L48.2921 102.472C48.2921 102.472 54.6835 123.297 54.7588 124.22C54.8342 125.143 61.3637 178.371 61.665 180.361C61.9664 182.351 61.8785 183.77 63.084 184.197C64.2894 184.624 67.1335 184.624 68.6278 184.624C70.122 184.624 75.308 185.409 77.8633 184.769C80.4186 184.128 80.7074 183.701 78.9306 182.42C77.1538 181.14 67.2842 180.323 66.3738 176.594C66.2985 176.312 66.2294 121.52 66.2294 121.52C66.2294 121.52 65.3756 103.401 63.9566 98.2902H31.1207L29.5951 123.002Z" fill="white" stroke="#130F26" stroke-width="0.152495" stroke-linecap="round" stroke-linejoin="round"/>
<path d="M16.1671 184.26C18.7224 183.331 22.2069 180.775 23.3433 177.718L23.5819 177.09C22.1316 178.634 19.8148 180.782 19.8148 180.782C19.6728 180.053 19.3561 179.37 18.8919 178.791C18.6894 178.568 18.4299 178.404 18.1413 178.316C17.8526 178.229 17.5457 178.222 17.2533 178.295L19.7646 175.533C17.8811 176.701 14.4908 179.086 13.1597 181.139C11.2574 183.971 13.593 185.183 16.1671 184.26Z" fill="#130F26" stroke="#130F26" stroke-width="0.152495" stroke-linecap="round" stroke-linejoin="round"/>
<path d="M78.8875 182.408C77.6695 181.535 72.6656 180.876 69.3255 179.35C69.1877 179.467 69.0801 179.616 69.0116 179.783C68.7996 180.385 68.6338 181.002 68.5156 181.629L61.6094 180.154V180.348C61.8919 182.339 61.8228 183.758 63.0283 184.184C64.2337 184.611 67.0779 184.611 68.5721 184.611C70.0664 184.611 75.2523 185.396 77.8076 184.756C80.3629 184.115 80.6894 183.714 78.8875 182.408Z" fill="#130F26" stroke="#130F26" stroke-width="0.152495" stroke-linecap="round" stroke-linejoin="round"/>
<path d="M39.1657 68.8214C39.1657 68.8214 35.9073 70.3219 31.9644 77.404C27.6512 85.1326 28.392 89.4271 28.3293 98.7505C28.2665 108.074 28.0781 123.55 28.0781 123.55C28.0781 123.55 40.007 126.746 48.5645 126.243C57.1219 125.741 67.9772 123.801 67.9772 123.801C67.9772 123.801 65.6605 92.2335 63.4694 83.155C61.2782 74.0764 59.9597 69.9704 59.9597 69.9704C55.7248 70.5581 51.4336 70.6214 47.1832 70.1587C39.9191 69.4493 39.1657 68.8214 39.1657 68.8214Z" fill="#130F26" stroke="#130F26" stroke-width="0.152495" stroke-linecap="round" stroke-linejoin="round"/>
<path d="M52.8906 96.7417C53.2171 97.8153 53.5185 98.9015 53.7822 99.9876" stroke="white" stroke-width="0.152495" stroke-linecap="round" stroke-linejoin="round"/>
<path d="M45.3242 78.974C47.8534 83.6408 50.0236 88.4934 51.8161 93.4896" stroke="white" stroke-width="0.152495" stroke-linecap="round" stroke-linejoin="round"/>
<path d="M119.144 62.8174C118.767 62.5662 112.595 61.5994 112.595 61.5994L111.39 61.1034C111.39 61.1034 118.861 61.6998 118.924 61.3859C118.987 61.072 119.238 60.6953 118.736 60.6325C118.233 60.5697 108.621 58.6171 108.621 58.6171C108.621 58.6171 111.064 56.3067 111.377 55.8044C111.691 55.3021 112.125 54.2976 111.622 54.2976C111.12 54.2976 110.994 54.6115 110.31 55.051C109.626 55.4905 106.926 56.5578 106.173 57.1794C105.419 57.8009 103.172 59.4333 103.172 59.4333L77.0661 55.8421C77.0661 55.8421 67.8997 44.541 65.9095 42.1301C64.526 40.5212 62.951 39.0875 61.2195 37.8608C59.2983 37.0132 59.336 38.4321 59.336 38.4321L63.3479 56.2627C63.3479 56.2627 73.726 62.4469 74.3664 62.4469C75.0068 62.4469 103.046 63.3761 103.046 63.3761C103.046 63.3761 104.93 64.2551 106.11 65.0022C107.29 65.7494 114.818 68.1414 114.818 68.1414C114.818 68.1414 115.32 67.8903 114.755 67.4508C114.19 67.0113 110.561 65.2597 110.561 65.2597L118.095 66.892C118.095 66.892 118.535 66.5781 118.346 66.2642C118.158 65.9503 111.44 63.3824 111.44 63.3824L118.974 63.7591C118.974 63.7591 119.514 63.0685 119.144 62.8174Z" fill="white" stroke="#130F26" stroke-width="0.152495" stroke-linecap="round" stroke-linejoin="round"/>
<path d="M75.4903 53.9021C72.7843 50.5682 67.3786 43.9132 65.9095 42.1301C64.526 40.5212 62.951 39.0875 61.2195 37.8608C59.2983 37.0132 59.336 38.4321 59.336 38.4321L63.3479 56.2627C63.3479 56.2627 68.0316 59.0503 71.2963 60.8836L75.4903 53.9021Z" fill="white" stroke="#130F26" stroke-width="0.152495" stroke-linecap="round" stroke-linejoin="round"/>
<path d="M47.7486 36.3348C47.7486 36.3348 42.2989 36.5859 38.9588 40.2839C35.6187 43.9818 36.0143 52.1186 37.3955 57.0032C38.7768 61.8878 40.5347 64.5812 40.1517 66.2764C39.7687 67.9715 38.4001 68.5303 39.1472 70.0936C39.8943 71.6569 44.2201 73.3521 51.8609 73.101C59.5017 72.8498 60.9457 71.2174 61.0085 69.786C61.0713 68.3545 60.5062 67.1553 60.6946 66.2764C60.8829 65.3974 66.3954 60.5128 66.3954 55.126C66.3954 49.7391 64.0159 47.8619 63.4508 43.9756C62.8857 40.0892 63.0741 39.5305 60.7574 37.8353C58.4406 36.1401 50.8187 35.2674 47.7486 36.3348Z" fill="white" stroke="#130F26" stroke-width="0.152495" stroke-linecap="round" stroke-linejoin="round"/>
<path d="M45.274 55.0067C43.4526 56.5309 41.431 57.7983 39.2656 58.7737" stroke="#130F26" stroke-width="0.152495" stroke-linecap="round" stroke-linejoin="round"/>
<path d="M45.8773 55.6355C45.8773 55.6355 44.5275 59.9927 41.2188 62.3973" stroke="#130F26" stroke-width="0.152495" stroke-linecap="round" stroke-linejoin="round"/>
<path d="M59.3997 40.2778L60.0276 46.2925L57.3906 43.2224L59.3997 40.2778Z" fill="white" stroke="#130F26" stroke-width="0.152495" stroke-linecap="round" stroke-linejoin="round"/>
<path d="M55.8906 46.7949L59.4002 40.278L56.2045 36.8374L55.8906 46.7949Z" fill="white" stroke="#130F26" stroke-width="0.152495" stroke-linecap="round" stroke-linejoin="round"/>
<path d="M49.1289 25.6875C49.6762 27.859 49.9483 30.0907 49.9388 32.33C49.9205 33.78 49.7734 35.2256 49.4993 36.6495L55.8907 46.7954L57.7052 37.3778L58.8981 30.8609C58.8981 30.8609 51.634 30.4465 49.1289 25.6875Z" fill="white" stroke="#130F26" stroke-width="0.152495" stroke-linecap="round" stroke-linejoin="round"/>
<path d="M55.5123 41.3472L55.8889 46.7968L54.0117 43.8522L55.5123 41.3472Z" fill="white" stroke="#130F26" stroke-width="0.152495" stroke-linecap="round" stroke-linejoin="round"/>
<path d="M47.3711 36.3986L53.1974 46.8584L55.5142 41.3459L49.3174 32.8262L47.3711 36.3986Z" fill="white" stroke="#130F26" stroke-width="0.152495" stroke-linecap="round" stroke-linejoin="round"/>
<path d="M149.444 41.2778H96.5742V84.6614H149.444V41.2778Z" fill="#3399FF"/>
<mask id="mask0_1311_7781" style="mask-type:luminance" maskUnits="userSpaceOnUse" x="96" y="41" width="54" height="44">
<path d="M149.444 41.2784H96.5742V84.6621H149.444V41.2784Z" fill="white"/>
</mask>
<g mask="url(#mask0_1311_7781)">
<path opacity="0.2" d="M149.444 41.2784H96.5742V84.6621H149.444V41.2784Z" fill="#130F26"/>
</g>
<path d="M149.444 41.2778H96.5742V84.6614H149.444V41.2778Z" stroke="#130F26" stroke-width="0.152495" stroke-linecap="round" stroke-linejoin="round"/>
<path d="M138.249 41.2778H85.3789V84.6614H138.249V41.2778Z" fill="#3399FF" stroke="#130F26" stroke-width="0.152495" stroke-linecap="round" stroke-linejoin="round"/>
<path d="M158.154 99.2646C156.459 96.5775 149.446 84.6611 149.446 84.6611H138.258L144.015 99.2646H158.154Z" fill="#3399FF"/>
<mask id="mask1_1311_7781" style="mask-type:luminance" maskUnits="userSpaceOnUse" x="138" y="84" width="21" height="16">
<path d="M158.154 99.2665C156.459 96.5793 149.446 84.663 149.446 84.663H138.258L144.015 99.2665H158.154Z" fill="white"/>
</mask>
<g mask="url(#mask1_1311_7781)">
<path opacity="0.2" d="M158.154 99.2665C156.459 96.5793 149.446 84.663 149.446 84.663H138.258L144.015 99.2665H158.154Z" fill="#130F26"/>
</g>
<path d="M158.154 99.2646C156.459 96.5775 149.446 84.6611 149.446 84.6611H138.258L144.015 99.2646H158.154Z" stroke="#130F26" stroke-width="0.152495" stroke-linecap="round" stroke-linejoin="round"/>
<path d="M76.6406 99.2646C78.3358 96.5775 85.3425 84.6611 85.3425 84.6611H96.5368L90.7795 99.2646H76.6406Z" fill="#3399FF" stroke="#130F26" stroke-width="0.152495" stroke-linecap="round" stroke-linejoin="round"/>
<path d="M85.3423 84.6611L80.4766 99.2646H135.695L138.257 84.6611H85.3423Z" fill="#3399FF" stroke="#130F26" stroke-width="0.152495" stroke-linecap="round" stroke-linejoin="round"/>
<path d="M156.25 56.9735V71.5017" stroke="#130F26" stroke-width="0.152495" stroke-linecap="round" stroke-linejoin="round"/>
<path d="M159 63.2589V75.0372" stroke="#130F26" stroke-width="0.152495" stroke-linecap="round" stroke-linejoin="round"/>
<path d="M79.6992 71.5001V80.5284" stroke="#130F26" stroke-width="0.152495" stroke-linecap="round" stroke-linejoin="round"/>
<path d="M77.3438 76.6055V83.6686" stroke="#130F26" stroke-width="0.152495" stroke-linecap="round" stroke-linejoin="round"/>
<path d="M38.6641 51.9325C40.5377 54.0546 42.7122 55.8907 45.1182 57.3822C48.8853 59.6361 62.6977 67.4653 63.7839 67.9047C64.87 68.3442 97.8566 62.9574 97.8566 62.9574C97.8566 62.9574 99.7402 63.8364 100.927 64.5835C102.113 65.3306 109.635 67.7227 109.635 67.7227C109.635 67.7227 110.137 67.4715 109.572 67.0383C109.007 66.6051 105.378 64.8409 105.378 64.8409L112.912 66.4733C112.912 66.4733 113.352 66.1594 113.163 65.8454C112.975 65.5315 106.257 62.9637 106.257 62.9637L113.791 63.3404C113.791 63.3404 114.356 62.6497 113.98 62.3986C113.603 62.1475 105.887 60.3895 105.887 60.3895C105.887 60.3895 114.093 59.6989 114.155 59.385C114.218 59.0711 114.469 58.7006 113.967 58.6379C113.465 58.5751 103.193 57.5705 103.193 57.5705C103.193 57.5705 105.887 55.8816 106.201 55.3794C106.515 54.8771 106.954 53.8726 106.452 53.8726C105.949 53.8726 105.824 54.1865 105.14 54.626C104.455 55.0655 101.756 56.1328 101.002 56.7543C100.249 57.3759 97.9948 59.0146 97.9948 59.0146L67.8083 59.0773L49.0673 44.2917" fill="white"/>
<path d="M38.6641 51.9325C40.5377 54.0546 42.7122 55.8907 45.1182 57.3822C48.8853 59.6361 62.6977 67.4653 63.7839 67.9047C64.87 68.3442 97.8566 62.9574 97.8566 62.9574C97.8566 62.9574 99.7402 63.8364 100.927 64.5835C102.113 65.3306 109.635 67.7227 109.635 67.7227C109.635 67.7227 110.137 67.4715 109.572 67.0383C109.007 66.6051 105.378 64.8409 105.378 64.8409L112.912 66.4733C112.912 66.4733 113.352 66.1594 113.163 65.8454C112.975 65.5315 106.257 62.9637 106.257 62.9637L113.791 63.3404C113.791 63.3404 114.356 62.6497 113.98 62.3986C113.603 62.1475 105.887 60.3895 105.887 60.3895C105.887 60.3895 114.093 59.6989 114.155 59.385C114.218 59.0711 114.469 58.7006 113.967 58.6379C113.465 58.5751 103.193 57.5705 103.193 57.5705C103.193 57.5705 105.887 55.8816 106.201 55.3794C106.515 54.8771 106.954 53.8726 106.452 53.8726C105.949 53.8726 105.824 54.1865 105.14 54.626C104.455 55.0655 101.756 56.1328 101.002 56.7543C100.249 57.3759 97.9948 59.0146 97.9948 59.0146L67.8083 59.0773L49.0673 44.2917" stroke="#130F26" stroke-width="0.152495" stroke-linecap="round" stroke-linejoin="round"/>
<path d="M113.951 58.6363C113.455 58.5735 103.177 57.5689 103.177 57.5689C103.177 57.5689 105.871 55.88 106.185 55.3778C106.498 54.8755 106.938 53.871 106.436 53.871C105.933 53.871 105.808 54.1849 105.123 54.6244C104.439 55.0639 101.739 56.1312 100.986 56.7527C100.233 57.3743 97.9787 59.013 97.9787 59.013L67.7922 59.0757L64.4458 56.42C63.1902 58.6237 60.8421 62.7549 59.3164 65.4797C61.6645 66.7856 63.4413 67.7587 63.7992 67.9031C64.8665 68.3426 97.8719 62.9558 97.8719 62.9558C97.8719 62.9558 99.7555 63.8348 100.942 64.5819C102.129 65.329 109.65 67.7211 109.65 67.7211C109.65 67.7211 110.152 67.4699 109.587 67.0367C109.022 66.6035 105.393 64.8393 105.393 64.8393L112.927 66.4717C112.927 66.4717 113.367 66.1578 113.179 65.8438C112.99 65.5299 106.272 62.9621 106.272 62.9621L113.806 63.3388C113.806 63.3388 114.372 62.6481 113.995 62.397C113.618 62.1459 105.883 60.3879 105.883 60.3879C105.883 60.3879 114.089 59.6973 114.152 59.3834C114.215 59.0695 114.453 58.699 113.951 58.6363Z" fill="white" stroke="#130F26" stroke-width="0.152495" stroke-linecap="round" stroke-linejoin="round"/>
<path d="M63.4057 20.4271C63.5127 20.2972 63.6541 20.2 63.8137 20.1466C63.9733 20.0931 64.1446 20.0856 64.3083 20.1249C64.4719 20.1642 64.6212 20.2486 64.7392 20.3687C64.8571 20.4887 64.939 20.6395 64.9753 20.8038C65.0802 21.4849 65.0452 22.1802 64.8725 22.8473C64.6998 23.5144 64.393 24.1393 63.9708 24.6839C63.2802 25.3745 62.6523 25.5628 62.6523 24.6839C62.8267 23.2524 63.0782 21.8314 63.4057 20.4271Z" fill="white" stroke="#130F26" stroke-width="0.152495" stroke-linecap="round" stroke-linejoin="round"/>
<path d="M55.6949 9.45166C55.4747 12.5071 54.1673 15.3826 52.0094 17.5571C49.9992 19.5338 47.7259 21.224 45.2539 22.5798C45.2539 22.5798 45.6181 24.5449 46.3589 25.1602C47.0998 25.7755 48.5689 25.6562 48.5689 25.6562C49.423 27.9914 50.812 30.0943 52.6247 31.7964C55.5693 34.4961 59.0098 34.2513 60.975 30.2017C62.9401 26.1522 63.9258 22.09 63.681 19.7545L63.4361 17.4189C63.4361 17.4189 57.0447 13.8716 55.6949 9.45166Z" fill="white" stroke="#130F26" stroke-width="0.152495" stroke-linecap="round" stroke-linejoin="round"/>
<path d="M55.3268 21.5939C55.6388 21.5939 55.8918 21.1442 55.8918 20.5894C55.8918 20.0346 55.6388 19.5848 55.3268 19.5848C55.0147 19.5848 54.7617 20.0346 54.7617 20.5894C54.7617 21.1442 55.0147 21.5939 55.3268 21.5939Z" fill="#130F26"/>
<path d="M58.3971 29.6108C58.7092 29.6108 58.9621 29.161 58.9621 28.6062C58.9621 28.0514 58.7092 27.6017 58.3971 27.6017C58.085 27.6017 57.832 28.0514 57.832 28.6062C57.832 29.161 58.085 29.6108 58.3971 29.6108Z" fill="#130F26"/>
<path d="M60.776 21.5939C61.0881 21.5939 61.341 21.1442 61.341 20.5894C61.341 20.0346 61.0881 19.5848 60.776 19.5848C60.4639 19.5848 60.2109 20.0346 60.2109 20.5894C60.2109 21.1442 60.4639 21.5939 60.776 21.5939Z" fill="#130F26"/>
<path d="M59.6434 19.5239C59.4277 20.276 59.3637 21.0636 59.4551 21.8407C59.6434 22.908 60.5224 24.7224 59.769 25.0363C59.4252 25.1932 59.045 25.2527 58.6697 25.2084C58.2944 25.1641 57.9385 25.0177 57.6406 24.7852" stroke="#130F26" stroke-width="0.152495" stroke-linecap="round" stroke-linejoin="round"/>
<path d="M53.6914 18.7747C53.6914 18.7747 53.9928 16.8536 56.5104 17.0733" stroke="#130F26" stroke-width="0.152495" stroke-linecap="round" stroke-linejoin="round"/>
<path d="M60.4375 17.6635C60.4375 17.6635 62.7856 15.78 63.5453 19.2268" stroke="#130F26" stroke-width="0.152495" stroke-linecap="round" stroke-linejoin="round"/>
</svg>
