<svg width="48" height="12" viewBox="0 0 48 12" fill="none" xmlns="http://www.w3.org/2000/svg">
<g filter="url(#filter0_b_1311_7010)">
<path d="M20 12C19.6493 11.9997 19.3048 11.9303 19.0012 11.7987C18.6975 11.667 18.4454 11.4778 18.27 11.25L14.86 6.65262L12.68 9.10506C12.4924 9.30797 12.2409 9.47301 11.9478 9.58553C11.6548 9.69804 11.3292 9.75455 11 9.75005H2C1.46957 9.75005 0.960859 9.59202 0.585786 9.31072C0.210714 9.02942 0 8.6479 0 8.25008C0 7.85227 0.210714 7.47075 0.585786 7.18945C0.960859 6.90815 1.46957 6.75012 2 6.75012H9.93L13.34 2.9177C13.5305 2.70417 13.791 2.53092 14.0964 2.41455C14.4018 2.29819 14.742 2.24261 15.0843 2.25315C15.4265 2.26369 15.7595 2.33999 16.0512 2.47474C16.3428 2.60949 16.5835 2.79817 16.75 3.0227L20 7.5001L25.23 0.750251C25.4087 0.517996 25.6672 0.325917 25.9785 0.194014C26.2898 0.0621111 26.6425 -0.00479333 27 0.000267193C27.349 0.00184721 27.6914 0.071904 27.9932 0.203475C28.2949 0.335045 28.5455 0.523549 28.72 0.750251L33.51 6.75012L35.51 5.56514C35.8645 5.35879 36.3013 5.24784 36.75 5.25015H46C46.5304 5.25015 47.0391 5.40818 47.4142 5.68948C47.7893 5.97078 48 6.3523 48 6.75012C48 7.14793 47.7893 7.52946 47.4142 7.81075C47.0391 8.09205 46.5304 8.25008 46 8.25008H37.45L34.2 10.1775C33.9761 10.3157 33.7148 10.4157 33.4342 10.4706C33.1536 10.5255 32.8605 10.5339 32.5751 10.4954C32.2897 10.4569 32.0189 10.3723 31.7815 10.2475C31.5441 10.1226 31.3456 9.9606 31.2 9.77255L27 4.45517L21.73 11.25C21.5546 11.4778 21.3025 11.667 20.9988 11.7987C20.6952 11.9303 20.3507 11.9997 20 12Z" fill="#FFC7C2"/>
</g>
<defs>
<filter id="filter0_b_1311_7010" x="-25" y="-25" width="98" height="62" filterUnits="userSpaceOnUse" color-interpolation-filters="sRGB">
<feFlood flood-opacity="0" result="BackgroundImageFix"/>
<feGaussianBlur in="BackgroundImageFix" stdDeviation="12.5"/>
<feComposite in2="SourceAlpha" operator="in" result="effect1_backgroundBlur_1311_7010"/>
<feBlend mode="normal" in="SourceGraphic" in2="effect1_backgroundBlur_1311_7010" result="shape"/>
</filter>
</defs>
</svg>
