<svg width="21" height="18" viewBox="0 0 21 18" fill="none" xmlns="http://www.w3.org/2000/svg">
<path d="M10.9886 7.96452C9.55177 6.20264 8.91658 4.70419 8.5528 3.81013C8.43762 3.52846 8.05559 3.52846 7.94156 3.81013C7.57778 4.70419 6.94259 6.20264 5.50572 7.96452C4.60596 9.0684 3.71875 10.6843 3.71875 12.2763C3.71875 14.9926 5.67905 16.8321 8.24718 16.8321C10.8153 16.8321 12.7756 14.9915 12.7756 12.2763C12.7756 10.6216 11.8884 9.0684 10.9886 7.96452Z" fill="#E5322E"/>
<path d="M9.49884 12.0241C10.223 10.6465 10.1203 9.29859 10.6928 9.54149C11.4705 9.87334 12.3315 11.5782 12.0088 13.1234C11.7784 14.225 11.0349 14.8921 10.0873 14.574C9.32208 14.3174 8.84654 13.2648 9.49884 12.0241Z" fill="#FF6050"/>
<path d="M17.5632 3.63893C16.6652 2.53775 16.2682 1.60122 16.0408 1.04243C15.9688 0.866389 15.7301 0.866389 15.6588 1.04243C15.4314 1.60122 15.0344 2.53775 14.1364 3.63893C13.574 4.32885 13.0195 5.3388 13.0195 6.33377C13.0195 8.03151 14.2447 9.18115 15.8498 9.18115C17.4549 9.18115 18.6801 8.03079 18.6801 6.33377C18.6801 5.2996 18.1256 4.32885 17.5632 3.63893Z" fill="#E5322E"/>
<path d="M16.6336 6.17616C17.0861 5.31517 17.022 4.47272 17.3798 4.62453C17.8659 4.83194 18.404 5.89748 18.2023 6.86323C18.0583 7.55173 17.5936 7.96868 17.0013 7.76983C16.5231 7.60947 16.2259 6.95161 16.6336 6.17616Z" fill="#FF6050"/>
</svg>
