<svg width="25" height="20" viewBox="0 0 25 20" fill="none" xmlns="http://www.w3.org/2000/svg">
<path d="M22.4892 2.87177C21.9028 2.19911 21.2065 1.6655 20.4402 1.30144C19.6738 0.937383 18.8524 0.75 18.0229 0.75C17.1934 0.75 16.372 0.937383 15.6056 1.30144C14.8393 1.6655 14.143 2.19911 13.5566 2.87177L12.3395 4.26714L11.1225 2.87177C9.93795 1.51368 8.33137 0.750704 6.65617 0.750704C4.98098 0.750704 3.3744 1.51368 2.18985 2.87177C1.00531 4.22987 0.339844 6.07185 0.339844 7.99249C0.339844 9.91313 1.00531 11.7551 2.18985 13.1132L3.4069 14.5086L12.3395 19.25L21.2722 14.5086L22.4892 13.1132C23.0759 12.4409 23.5413 11.6426 23.8589 10.7639C24.1764 9.88531 24.3398 8.94356 24.3398 7.99249C24.3398 7.04142 24.1764 6.09967 23.8589 5.22104C23.5413 4.34241 23.0759 3.54412 22.4892 2.87177Z" fill="url(#paint0_linear_1311_7170)"/>
<defs>
<linearGradient id="paint0_linear_1311_7170" x1="0.339844" y1="11.95" x2="23.7646" y2="12.0545" gradientUnits="userSpaceOnUse">
<stop stop-color="#E5322E"/>
<stop offset="1" stop-color="#E5322E" stop-opacity="0.51"/>
</linearGradient>
</defs>
</svg>
