<svg width="32" height="24" viewBox="0 0 32 24" fill="none" xmlns="http://www.w3.org/2000/svg">
<path d="M7.23702 23.8817V11.582L3.42251 8.0923L0.00195312 6.15576V21.7111C0.00195312 22.9121 0.97501 23.8817 2.17252 23.8817H7.23702Z" fill="#4285F4"/>
<path d="M24.6016 23.8821H29.6661C30.8672 23.8821 31.8366 22.9089 31.8366 21.7115V6.15625L27.9623 8.37432L24.6016 11.5824V23.8821Z" fill="#34A853"/>
<path d="M7.2378 11.5823L6.71875 6.77643L7.2378 2.17676L15.9198 8.68834L24.6019 2.17676L25.1825 6.52809L24.6019 11.5823L15.9198 18.0939L7.2378 11.5823Z" fill="#EA4335"/>
<path d="M24.6016 2.17662V11.5821L31.8366 6.1559V3.26185C31.8366 0.577703 28.7726 -0.952453 26.6275 0.657288L24.6016 2.17662Z" fill="#FBBC04"/>
<path d="M0.00195312 6.15596L3.3295 8.65171L7.23702 11.5822V2.17668L5.21107 0.657345C3.06226 -0.95252 0.00195312 0.577759 0.00195312 3.26178V6.15583V6.15596Z" fill="#C5221F"/>
</svg>
