<svg width="490" height="101" viewBox="0 0 490 101" fill="none" xmlns="http://www.w3.org/2000/svg">
<path d="M47.9387 3.87427V19.3272H24.6254C21.8373 19.3272 19.5847 21.5797 19.5847 24.3679V47.3503H4.46265C2.36761 47.3503 0.682129 45.6648 0.682129 43.5698V3.87427C0.682129 1.79498 2.36761 0.09375 4.46265 0.09375H44.1581C46.2374 0.09375 47.9387 1.79498 47.9387 3.87427Z" fill="white"/>
<path d="M101.496 3.87427V43.5698C101.496 45.6648 99.7946 47.3503 97.7153 47.3503H82.5932V24.3679C82.5932 21.5797 80.3406 19.3272 77.5525 19.3272H54.2393V3.87427C54.2393 1.79498 55.9247 0.09375 58.0198 0.09375H97.7153C99.7946 0.09375 101.496 1.79498 101.496 3.87427Z" fill="white"/>
<path d="M47.9384 82.3351V97.1264C47.9384 99.2214 46.2372 100.907 44.1579 100.907H4.46241C2.36737 100.907 0.681885 99.2214 0.681885 97.1264V57.4309C0.681885 55.3516 2.36737 53.6504 4.46241 53.6504H19.5845V77.2944C19.5845 80.0668 21.8371 82.3351 24.6252 82.3351H47.9384Z" fill="white"/>
<path d="M101.496 57.4309V97.1264C101.496 99.2214 99.7946 100.907 97.7153 100.907H58.0198C55.9247 100.907 54.2393 99.2214 54.2393 97.1264V82.3351H77.5525C80.3406 82.3351 82.5932 80.0668 82.5932 77.2944V53.6504H97.7153C99.7946 53.6504 101.496 55.3516 101.496 57.4309Z" fill="white"/>
<path d="M199.846 20.6651V83.2956H187.284V42.5588L170.505 83.2956H160.993L144.124 42.5588V83.2956H131.562V20.6651H145.829L165.749 67.2342L185.669 20.6651H199.846Z" fill="white"/>
<path d="M253.989 57.364C253.989 59.1586 253.87 60.7737 253.63 62.2094H217.29C217.589 65.7985 218.846 68.61 221.059 70.6439C223.272 72.6777 225.994 73.6946 229.224 73.6946C233.89 73.6946 237.21 71.6907 239.184 67.6828H252.733C251.298 72.4684 248.546 76.4164 244.478 79.527C240.41 82.5778 235.416 84.1031 229.493 84.1031C224.708 84.1031 220.401 83.0563 216.573 80.9626C212.804 78.8092 209.843 75.7883 207.689 71.9001C205.596 68.0118 204.549 63.5254 204.549 58.4408C204.549 53.2964 205.596 48.78 207.689 44.8918C209.783 41.0035 212.714 38.0126 216.483 35.9189C220.251 33.8253 224.588 32.7784 229.493 32.7784C234.219 32.7784 238.436 33.7954 242.145 35.8292C245.914 37.863 248.815 40.7643 250.849 44.5329C252.943 48.2416 253.989 52.5187 253.989 57.364ZM240.979 53.7749C240.919 50.5447 239.752 47.9725 237.479 46.0583C235.206 44.0842 232.425 43.0972 229.135 43.0972C226.024 43.0972 223.392 44.0543 221.238 45.9685C219.145 47.8229 217.859 50.425 217.38 53.7749H240.979Z" fill="white"/>
<path d="M255.442 58.2613C255.442 53.2365 256.429 48.78 258.403 44.8918C260.437 41.0035 263.188 38.0126 266.658 35.9189C270.127 33.8253 273.986 32.7784 278.233 32.7784C281.463 32.7784 284.544 33.4963 287.475 34.9319C290.406 36.3078 292.739 38.1621 294.474 40.4951V16.8965H307.215V83.2956H294.474V75.9379C292.918 78.3904 290.735 80.3645 287.924 81.8599C285.112 83.3554 281.852 84.1031 278.143 84.1031C273.956 84.1031 270.127 83.0264 266.658 80.8729C263.188 78.7194 260.437 75.6986 258.403 71.8103C256.429 67.8623 255.442 63.3459 255.442 58.2613ZM294.563 58.4408C294.563 55.39 293.965 52.7879 292.769 50.6344C291.573 48.4211 289.957 46.7462 287.924 45.6096C285.89 44.4132 283.706 43.815 281.373 43.815C279.04 43.815 276.887 44.3833 274.913 45.5199C272.939 46.6564 271.324 48.3314 270.068 50.5447C268.871 52.6982 268.273 55.2704 268.273 58.2613C268.273 61.2523 268.871 63.8843 270.068 66.1574C271.324 68.3707 272.939 70.0756 274.913 71.272C276.947 72.4683 279.1 73.0665 281.373 73.0665C283.706 73.0665 285.89 72.4983 287.924 71.3617C289.957 70.1653 291.573 68.4904 292.769 66.3369C293.965 64.1236 294.563 61.4916 294.563 58.4408Z" fill="white"/>
<path d="M327.56 40.854C329.175 38.4612 331.388 36.5171 334.2 35.0216C337.071 33.5262 340.331 32.7784 343.98 32.7784C348.227 32.7784 352.056 33.8253 355.465 35.9189C358.935 38.0126 361.657 41.0035 363.631 44.8918C365.664 48.7202 366.681 53.1767 366.681 58.2613C366.681 63.3459 365.664 67.8623 363.631 71.8103C361.657 75.6986 358.935 78.7194 355.465 80.8729C352.056 83.0264 348.227 84.1031 343.98 84.1031C340.271 84.1031 337.011 83.3853 334.2 81.9497C331.448 80.4542 329.235 78.54 327.56 76.207V83.2956H314.998V16.8965H327.56V40.854ZM353.85 58.2613C353.85 55.2704 353.222 52.6982 351.966 50.5447C350.77 48.3314 349.154 46.6564 347.121 45.5199C345.147 44.3833 342.993 43.815 340.66 43.815C338.387 43.815 336.233 44.4132 334.2 45.6096C332.226 46.7462 330.611 48.4211 329.354 50.6344C328.158 52.8477 327.56 55.4498 327.56 58.4408C327.56 61.4317 328.158 64.0339 329.354 66.2472C330.611 68.4605 332.226 70.1653 334.2 71.3617C336.233 72.4983 338.387 73.0665 340.66 73.0665C342.993 73.0665 345.147 72.4683 347.121 71.272C349.154 70.0756 350.77 68.3707 351.966 66.1574C353.222 63.9441 353.85 61.3121 353.85 58.2613Z" fill="white"/>
<path d="M383.885 16.8965V83.2956H371.323V16.8965H383.885Z" fill="white"/>
<path d="M413.883 84.1031C409.098 84.1031 404.791 83.0563 400.963 80.9626C397.134 78.8092 394.113 75.7883 391.9 71.9001C389.746 68.0118 388.67 63.5254 388.67 58.4408C388.67 53.3562 389.776 48.8697 391.99 44.9815C394.263 41.0933 397.344 38.1023 401.232 36.0087C405.12 33.8552 409.457 32.7784 414.242 32.7784C419.028 32.7784 423.365 33.8552 427.253 36.0087C431.141 38.1023 434.192 41.0933 436.405 44.9815C438.678 48.8697 439.815 53.3562 439.815 58.4408C439.815 63.5254 438.649 68.0118 436.316 71.9001C434.042 75.7883 430.932 78.8092 426.984 80.9626C423.096 83.0563 418.729 84.1031 413.883 84.1031ZM413.883 73.1563C416.157 73.1563 418.28 72.6179 420.254 71.5412C422.288 70.4046 423.903 68.7297 425.1 66.5164C426.296 64.3031 426.894 61.6112 426.894 58.4408C426.894 53.7151 425.638 50.096 423.126 47.5836C420.673 45.0114 417.652 43.7253 414.063 43.7253C410.474 43.7253 407.453 45.0114 405 47.5836C402.608 50.096 401.411 53.7151 401.411 58.4408C401.411 63.1665 402.578 66.8155 404.911 69.3877C407.303 71.9001 410.294 73.1563 413.883 73.1563Z" fill="white"/>
<path d="M441.313 58.4408C441.313 53.2964 442.36 48.8099 444.454 44.9815C446.547 41.0933 449.448 38.1023 453.157 36.0087C456.866 33.8552 461.113 32.7784 465.899 32.7784C472.06 32.7784 477.145 34.3337 481.153 37.4443C485.22 40.4951 487.942 44.8021 489.318 50.3652H475.769C475.051 48.2117 473.825 46.5368 472.09 45.3404C470.415 44.0842 468.321 43.4561 465.809 43.4561C462.22 43.4561 459.378 44.7721 457.285 47.4042C455.191 49.9764 454.144 53.6553 454.144 58.4408C454.144 63.1665 455.191 66.8454 457.285 69.4774C459.378 72.0496 462.22 73.3357 465.809 73.3357C470.894 73.3357 474.214 71.0626 475.769 66.5164H489.318C487.942 71.9001 485.22 76.1771 481.153 79.3475C477.085 82.5179 472 84.1031 465.899 84.1031C461.113 84.1031 456.866 83.0563 453.157 80.9626C449.448 78.8092 446.547 75.8182 444.454 71.9898C442.36 68.1016 441.313 63.5852 441.313 58.4408Z" fill="white"/>
</svg>
