<svg width="26" height="18" viewBox="0 0 26 18" fill="none" xmlns="http://www.w3.org/2000/svg">
<path d="M21.3199 1.81581C20.8551 1.3266 20.3033 0.938527 19.696 0.673755C19.0886 0.408984 18.4376 0.272705 17.7802 0.272705C17.1227 0.272705 16.4717 0.408984 15.8644 0.673755C15.257 0.938527 14.7052 1.3266 14.2404 1.81581L13.2759 2.83062L12.3113 1.81581C11.3725 0.828106 10.0992 0.273217 8.77157 0.273217C7.44391 0.273217 6.17063 0.828106 5.23183 1.81581C4.29304 2.80352 3.76563 4.14314 3.76562 5.53997C3.76562 6.9368 4.29304 8.27642 5.23183 9.26413L6.19639 10.2789L13.2759 17.7273L20.3554 10.2789L21.3199 9.26413C21.7849 8.77515 22.1538 8.19457 22.4054 7.55557C22.6571 6.91656 22.7866 6.23166 22.7866 5.53997C22.7866 4.84829 22.6571 4.16338 22.4054 3.52437C22.1538 2.88537 21.7849 2.30479 21.3199 1.81581Z" fill="url(#paint0_linear_1311_6963)"/>
<g filter="url(#filter0_b_1311_6963)">
<path d="M10.9007 13.0312C10.72 13.031 10.5426 12.9805 10.3861 12.8848C10.2297 12.7891 10.0998 12.6515 10.0095 12.4858L8.25281 9.14222L7.12978 10.9258C7.03313 11.0734 6.90357 11.1934 6.75259 11.2752C6.60162 11.3571 6.4339 11.3982 6.26432 11.3949H1.62796C1.35471 11.3949 1.09264 11.28 0.899425 11.0754C0.706206 10.8708 0.597656 10.5933 0.597656 10.304C0.597656 10.0147 0.706206 9.73722 0.899425 9.53264C1.09264 9.32806 1.35471 9.21313 1.62796 9.21313H5.71311L7.46978 6.42592C7.56792 6.27062 7.70209 6.14462 7.85943 6.05999C8.01677 5.97537 8.192 5.93495 8.36833 5.94261C8.54466 5.95028 8.71618 6.00577 8.86643 6.10377C9.01669 6.20177 9.14066 6.33899 9.22644 6.50228L10.9007 9.75857L13.5949 4.84959C13.687 4.68068 13.8201 4.54099 13.9805 4.44506C14.1409 4.34913 14.3226 4.30047 14.5067 4.30415C14.6865 4.3053 14.8629 4.35625 15.0184 4.45194C15.1738 4.54762 15.3029 4.68472 15.3928 4.84959L17.8604 9.21313L18.8907 8.35133C19.0733 8.20125 19.2983 8.12057 19.5295 8.12225H24.2946C24.5679 8.12225 24.8299 8.23718 25.0232 8.44176C25.2164 8.64634 25.3249 8.92381 25.3249 9.21313C25.3249 9.50245 25.2164 9.77992 25.0232 9.9845C24.8299 10.1891 24.5679 10.304 24.2946 10.304H19.8901L18.2158 11.7058C18.1005 11.8063 17.9659 11.879 17.8213 11.9189C17.6768 11.9588 17.5258 11.965 17.3788 11.937C17.2318 11.909 17.0923 11.8474 16.9699 11.7567C16.8476 11.6659 16.7454 11.548 16.6704 11.4113L14.5067 7.54408L11.7919 12.4858C11.7016 12.6515 11.5717 12.7891 11.4152 12.8848C11.2588 12.9805 11.0814 13.031 10.9007 13.0312Z" fill="white" fill-opacity="0.2"/>
</g>
<defs>
<filter id="filter0_b_1311_6963" x="-17.5842" y="-13.8779" width="61.0902" height="45.0909" filterUnits="userSpaceOnUse" color-interpolation-filters="sRGB">
<feFlood flood-opacity="0" result="BackgroundImageFix"/>
<feGaussianBlur in="BackgroundImageFix" stdDeviation="9.09091"/>
<feComposite in2="SourceAlpha" operator="in" result="effect1_backgroundBlur_1311_6963"/>
<feBlend mode="normal" in="SourceGraphic" in2="effect1_backgroundBlur_1311_6963" result="shape"/>
</filter>
<linearGradient id="paint0_linear_1311_6963" x1="3.76562" y1="8.41816" x2="22.3307" y2="8.50844" gradientUnits="userSpaceOnUse">
<stop stop-color="#E5322E"/>
<stop offset="1" stop-color="#E5322E" stop-opacity="0.51"/>
</linearGradient>
</defs>
</svg>
