<svg width="120" height="24" viewBox="0 0 120 24" fill="none" xmlns="http://www.w3.org/2000/svg">
<path d="M14.464 9.6373H12.0293V10.648C12.0293 10.9866 11.7546 11.264 11.4133 11.264H10.3386V13.76C10.3386 13.84 10.4026 13.9013 10.48 13.9013H13.2133V13.192C13.2133 12.8506 13.4906 12.576 13.8293 12.576H14.6026V9.77864C14.6026 9.7013 14.5386 9.6373 14.4613 9.6373H14.464ZM11.5573 10.648V9.6373H10.4826C10.4026 9.6373 10.3413 9.7013 10.3413 9.77864V10.7893H11.416C11.496 10.7893 11.5573 10.7253 11.5573 10.648ZM11.416 6.52264H7.43464C7.3573 6.52264 7.2933 6.58664 7.2933 6.66397V10.6453C7.2933 10.7253 7.3573 10.7866 7.43464 10.7866H9.8693V9.77597C9.8693 9.4373 10.1466 9.15997 10.4853 9.15997H11.56V6.66397C11.56 6.58397 11.496 6.52264 11.4186 6.52264H11.416ZM17.816 13.0506H15.0826V13.76C15.0826 14.1013 14.8053 14.376 14.4666 14.376H13.6933V17.1733C13.6933 17.2506 13.7573 17.3146 13.8346 17.3146H17.816C17.896 17.3146 17.9573 17.2506 17.9573 17.1733V13.192C17.9573 13.112 17.8933 13.0506 17.816 13.0506ZM14.4666 9.6373H12.032V10.648C12.032 10.9866 11.7573 11.264 11.416 11.264H10.3413V13.76C10.3413 13.84 10.4053 13.9013 10.4826 13.9013H13.216V13.192C13.216 12.8506 13.4933 12.576 13.832 12.576H14.6053V9.77864C14.6053 9.7013 14.5413 9.6373 14.464 9.6373H14.4666ZM11.56 10.648V9.6373H10.4853C10.4053 9.6373 10.344 9.7013 10.344 9.77864V10.7893H11.4186C11.4986 10.7893 11.56 10.7253 11.56 10.648ZM11.4186 6.52264H7.4373C7.35997 6.52264 7.29597 6.58664 7.29597 6.66397V10.6453C7.29597 10.7253 7.35997 10.7866 7.4373 10.7866H9.87197V9.77597C9.87197 9.4373 10.1493 9.15997 10.488 9.15997H11.5626V6.66397C11.5626 6.58397 11.4986 6.52264 11.4213 6.52264H11.4186ZM13.8373 13.0506C13.76 13.0506 13.696 13.1146 13.696 13.192V13.9013H14.4693C14.5493 13.9013 14.6106 13.8373 14.6106 13.76V13.0506H13.8373ZM17.8186 13.0506H15.0853V13.76C15.0853 14.1013 14.808 14.376 14.4693 14.376H13.696V17.1733C13.696 17.2506 13.76 17.3146 13.8373 17.3146H17.8186C17.8986 17.3146 17.96 17.2506 17.96 17.1733V13.192C17.96 13.112 17.896 13.0506 17.8186 13.0506ZM13.8373 13.0506C13.76 13.0506 13.696 13.1146 13.696 13.192V13.9013H14.4693C14.5493 13.9013 14.6106 13.8373 14.6106 13.76V13.0506H13.8373ZM14.4693 9.6373H12.0346V10.648C12.0346 10.9866 11.76 11.264 11.4186 11.264H10.344V13.76C10.344 13.84 10.408 13.9013 10.4853 13.9013H13.2186V13.192C13.2186 12.8506 13.496 12.576 13.8346 12.576H14.608V9.77864C14.608 9.7013 14.544 9.6373 14.4666 9.6373H14.4693ZM11.5626 10.648V9.6373H10.488C10.408 9.6373 10.3466 9.7013 10.3466 9.77864V10.7893H11.4213C11.5013 10.7893 11.5626 10.7253 11.5626 10.648ZM11.4213 6.52264H7.43997C7.36264 6.52264 7.29864 6.58664 7.29864 6.66397V10.6453C7.29864 10.7253 7.36264 10.7866 7.43997 10.7866H9.87464V9.77597C9.87464 9.4373 10.152 9.15997 10.4906 9.15997H11.5653V6.66397C11.5653 6.58397 11.5013 6.52264 11.424 6.52264H11.4213ZM17.8213 13.0506H15.088V13.76C15.088 14.1013 14.8106 14.376 14.472 14.376H13.6986V17.1733C13.6986 17.2506 13.7626 17.3146 13.84 17.3146H17.8213C17.9013 17.3146 17.9626 17.2506 17.9626 17.1733V13.192C17.9626 13.112 17.8986 13.0506 17.8213 13.0506ZM14.472 9.6373H12.0373V10.648C12.0373 10.9866 11.7626 11.264 11.4213 11.264H10.3466V13.76C10.3466 13.84 10.4106 13.9013 10.488 13.9013H13.2213V13.192C13.2213 12.8506 13.4986 12.576 13.8373 12.576H14.6106V9.77864C14.6106 9.7013 14.5466 9.6373 14.4693 9.6373H14.472ZM11.5653 10.648V9.6373H10.4906C10.4106 9.6373 10.3493 9.7013 10.3493 9.77864V10.7893H11.424C11.504 10.7893 11.5653 10.7253 11.5653 10.648ZM13.84 13.0506C13.7626 13.0506 13.6986 13.1146 13.6986 13.192V13.9013H14.472C14.552 13.9013 14.6133 13.8373 14.6133 13.76V13.0506H13.84ZM11.4213 6.52264H7.43997C7.36264 6.52264 7.29864 6.58664 7.29864 6.66397V10.6453C7.29864 10.7253 7.36264 10.7866 7.43997 10.7866H9.87464V9.77597C9.87464 9.4373 10.152 9.15997 10.4906 9.15997H11.5653V6.66397C11.5653 6.58397 11.5013 6.52264 11.424 6.52264H11.4213ZM17.8213 13.0506H15.088V13.76C15.088 14.1013 14.8106 14.376 14.472 14.376H13.6986V17.1733C13.6986 17.2506 13.7626 17.3146 13.84 17.3146H17.8213C17.9013 17.3146 17.9626 17.2506 17.9626 17.1733V13.192C17.9626 13.112 17.8986 13.0506 17.8213 13.0506ZM11.4213 6.52264H7.43997C7.36264 6.52264 7.29864 6.58664 7.29864 6.66397V10.6453C7.29864 10.7253 7.36264 10.7866 7.43997 10.7866H9.87464V9.77597C9.87464 9.4373 10.152 9.15997 10.4906 9.15997H11.5653V6.66397C11.5653 6.58397 11.5013 6.52264 11.424 6.52264H11.4213ZM14.472 9.63464H12.0373V10.6453C12.0373 10.984 11.7626 11.2613 11.4213 11.2613H10.3466V13.7573C10.3466 13.8373 10.4106 13.8986 10.488 13.8986H13.2213V13.1893C13.2213 12.848 13.4986 12.5733 13.8373 12.5733H14.6106V9.77597C14.6106 9.69864 14.5466 9.63464 14.4693 9.63464H14.472ZM11.5653 10.6453V9.63464H10.4906C10.4106 9.63464 10.3493 9.69864 10.3493 9.77597V10.7866H11.424C11.504 10.7866 11.5653 10.7226 11.5653 10.6453ZM13.84 13.048C13.7626 13.048 13.6986 13.112 13.6986 13.1893V13.8986H14.472C14.552 13.8986 14.6133 13.8346 14.6133 13.7573V13.048H13.84ZM17.8213 13.048H15.088V13.7573C15.088 14.0986 14.8106 14.3733 14.472 14.3733H13.6986V17.1706C13.6986 17.248 13.7626 17.312 13.84 17.312H17.8213C17.9013 17.312 17.9626 17.248 17.9626 17.1706V13.1893C17.9626 13.1093 17.8986 13.048 17.8213 13.048ZM14.6133 12.5733V9.77597C14.6133 9.69864 14.5493 9.63464 14.472 9.63464H12.0373V10.6453C12.0373 10.984 11.7626 11.2613 11.4213 11.2613H10.3466V13.7573C10.3466 13.8373 10.4106 13.8986 10.488 13.8986H13.2213V13.1893C13.2213 12.848 13.4986 12.5733 13.8373 12.5733H14.6106H14.6133ZM13.696 13.1893V13.8986H14.4693C14.5493 13.8986 14.6106 13.8346 14.6106 13.7573V13.048H13.8373C13.76 13.048 13.696 13.112 13.696 13.1893ZM11.5626 9.15997V6.66397C11.5626 6.58397 11.4986 6.52264 11.4213 6.52264H7.43997C7.36264 6.52264 7.29864 6.58664 7.29864 6.66397V10.6453C7.29864 10.7253 7.36264 10.7866 7.43997 10.7866H9.87464V9.77597C9.87464 9.4373 10.152 9.15997 10.4906 9.15997H11.5653H11.5626ZM10.3466 9.77597V10.7866H11.4213C11.5013 10.7866 11.5626 10.7226 11.5626 10.6453V9.63464H10.488C10.408 9.63464 10.3466 9.69864 10.3466 9.77597ZM17.8213 13.048H15.088V13.7573C15.088 14.0986 14.8106 14.3733 14.472 14.3733H13.6986V17.1706C13.6986 17.248 13.7626 17.312 13.84 17.312H17.8213C17.9013 17.312 17.9626 17.248 17.9626 17.1706V13.1893C17.9626 13.1093 17.8986 13.048 17.8213 13.048ZM19.536 3.4613H5.87464C4.93064 3.4613 4.16797 4.22664 4.16797 5.16797V18.8213C4.16797 19.7626 4.93064 20.528 5.87464 20.528H19.528C20.4693 20.528 21.2346 19.7626 21.2346 18.8213V5.1733C21.2346 4.23197 20.4693 3.46664 19.528 3.46664L19.536 3.4613ZM18.4373 17.1706C18.4373 17.5093 18.1626 17.7866 17.8213 17.7866H13.84C13.5013 17.7866 13.224 17.5093 13.224 17.1706V14.3733H10.4906C10.152 14.3733 9.87464 14.0986 9.87464 13.7573V11.2613H7.43997C7.1013 11.2613 6.82397 10.984 6.82397 10.6453V6.66397C6.82397 6.32264 7.1013 6.04797 7.43997 6.04797H11.4213C11.7626 6.04797 12.0373 6.32264 12.0373 6.66397V9.15997H14.472C14.8106 9.15997 15.088 9.4373 15.088 9.77597V12.5733H17.8213C18.1626 12.5733 18.4373 12.848 18.4373 13.1893V17.1706ZM18.4373 8.26397C18.4373 8.34664 18.3706 8.41597 18.2853 8.41597H17.016V9.6853C17.016 9.76797 16.9493 9.8373 16.864 9.8373H16.2186C16.136 9.8373 16.0666 9.76797 16.0666 9.6853V8.41597H14.7973C14.7146 8.41597 14.6453 8.34664 14.6453 8.26397V7.61864C14.6453 7.5333 14.7146 7.46664 14.7973 7.46664H16.0666V6.1973C16.0666 6.11197 16.136 6.0453 16.2186 6.0453H16.864C16.9493 6.0453 17.016 6.11197 17.016 6.1973V7.46664H18.2853C18.3706 7.46664 18.4373 7.5333 18.4373 7.61864V8.26397ZM14.6133 12.5733V9.77597C14.6133 9.69864 14.5493 9.63464 14.472 9.63464H12.0373V10.6453C12.0373 10.984 11.7626 11.2613 11.4213 11.2613H10.3466V13.7573C10.3466 13.8373 10.4106 13.8986 10.488 13.8986H13.2213V13.1893C13.2213 12.848 13.4986 12.5733 13.8373 12.5733H14.6106H14.6133ZM13.696 13.1893V13.8986H14.4693C14.5493 13.8986 14.6106 13.8346 14.6106 13.7573V13.048H13.8373C13.76 13.048 13.696 13.112 13.696 13.1893ZM11.5626 9.15997V6.66397C11.5626 6.58397 11.4986 6.52264 11.4213 6.52264H7.43997C7.36264 6.52264 7.29864 6.58664 7.29864 6.66397V10.6453C7.29864 10.7253 7.36264 10.7866 7.43997 10.7866H9.87464V9.77597C9.87464 9.4373 10.152 9.15997 10.4906 9.15997H11.5653H11.5626ZM10.3466 9.77597V10.7866H11.4213C11.5013 10.7866 11.5626 10.7226 11.5626 10.6453V9.63464H10.488C10.408 9.63464 10.3466 9.69864 10.3466 9.77597ZM17.8213 13.048H15.088V13.7573C15.088 14.0986 14.8106 14.3733 14.472 14.3733H13.6986V17.1706C13.6986 17.248 13.7626 17.312 13.84 17.312H17.8213C17.9013 17.312 17.9626 17.248 17.9626 17.1706V13.1893C17.9626 13.1093 17.8986 13.048 17.8213 13.048ZM11.4213 6.51997H7.43997C7.36264 6.51997 7.29864 6.58397 7.29864 6.6613V10.6426C7.29864 10.7226 7.36264 10.784 7.43997 10.784H9.87464V9.7733C9.87464 9.43464 10.152 9.1573 10.4906 9.1573H11.5653V6.6613C11.5653 6.5813 11.5013 6.51997 11.424 6.51997H11.4213ZM13.84 13.048C13.7626 13.048 13.6986 13.112 13.6986 13.1893V13.8986H14.472C14.552 13.8986 14.6133 13.8346 14.6133 13.7573V13.048H13.84ZM14.472 9.63464H12.0373V10.6453C12.0373 10.984 11.7626 11.2613 11.4213 11.2613H10.3466V13.7573C10.3466 13.8373 10.4106 13.8986 10.488 13.8986H13.2213V13.1893C13.2213 12.848 13.4986 12.5733 13.8373 12.5733H14.6106V9.77597C14.6106 9.69864 14.5466 9.63464 14.4693 9.63464H14.472ZM11.5653 10.6453V9.63464H10.4906C10.4106 9.63464 10.3493 9.69864 10.3493 9.77597V10.7866H11.424C11.504 10.7866 11.5653 10.7226 11.5653 10.6453ZM17.824 13.048H15.0906V13.7573C15.0906 14.0986 14.8133 14.3733 14.4746 14.3733H13.7013V17.1706C13.7013 17.248 13.7653 17.312 13.8426 17.312H17.824C17.904 17.312 17.9653 17.248 17.9653 17.1706V13.1893C17.9653 13.1093 17.9013 13.048 17.824 13.048ZM13.8426 13.048C13.7653 13.048 13.7013 13.112 13.7013 13.1893V13.8986H14.4746C14.5546 13.8986 14.616 13.8346 14.616 13.7573V13.048H13.8426ZM14.4746 9.63464H12.04V10.6453C12.04 10.984 11.7653 11.2613 11.424 11.2613H10.3493V13.7573C10.3493 13.8373 10.4133 13.8986 10.4906 13.8986H13.224V13.1893C13.224 12.848 13.5013 12.5733 13.84 12.5733H14.6133V9.77597C14.6133 9.69864 14.5493 9.63464 14.472 9.63464H14.4746ZM11.568 10.6453V9.63464H10.4933C10.4133 9.63464 10.352 9.69864 10.352 9.77597V10.7866H11.4266C11.5066 10.7866 11.568 10.7226 11.568 10.6453ZM11.4266 6.51997H7.4453C7.36797 6.51997 7.30397 6.58397 7.30397 6.6613V10.6426C7.30397 10.7226 7.36797 10.784 7.4453 10.784H9.87997V9.7733C9.87997 9.43464 10.1573 9.1573 10.496 9.1573H11.5706V6.6613C11.5706 6.5813 11.5066 6.51997 11.4293 6.51997H11.4266ZM17.8266 13.048H15.0933V13.7573C15.0933 14.0986 14.816 14.3733 14.4773 14.3733H13.704V17.1706C13.704 17.248 13.768 17.312 13.8453 17.312H17.8266C17.9066 17.312 17.968 17.248 17.968 17.1706V13.1893C17.968 13.1093 17.904 13.048 17.8266 13.048ZM13.8453 13.048C13.768 13.048 13.704 13.112 13.704 13.1893V13.8986H14.4773C14.5573 13.8986 14.6186 13.8346 14.6186 13.7573V13.048H13.8453ZM14.4773 9.63464H12.0426V10.6453C12.0426 10.984 11.768 11.2613 11.4266 11.2613H10.352V13.7573C10.352 13.8373 10.416 13.8986 10.4933 13.8986H13.2266V13.1893C13.2266 12.848 13.504 12.5733 13.8426 12.5733H14.616V9.77597C14.616 9.69864 14.552 9.63464 14.4746 9.63464H14.4773ZM11.5706 10.6453V9.63464H10.496C10.416 9.63464 10.3546 9.69864 10.3546 9.77597V10.7866H11.4293C11.5093 10.7866 11.5706 10.7226 11.5706 10.6453ZM11.4293 6.51997H7.44797C7.37064 6.51997 7.30664 6.58397 7.30664 6.6613V10.6426C7.30664 10.7226 7.37064 10.784 7.44797 10.784H9.88264V9.7733C9.88264 9.43464 10.16 9.1573 10.4986 9.1573H11.5733V6.6613C11.5733 6.5813 11.5093 6.51997 11.432 6.51997H11.4293ZM17.8293 13.048H15.096V13.7573C15.096 14.0986 14.8186 14.3733 14.48 14.3733H13.7066V17.1706C13.7066 17.248 13.7706 17.312 13.848 17.312H17.8293C17.9093 17.312 17.9706 17.248 17.9706 17.1706V13.1893C17.9706 13.1093 17.9066 13.048 17.8293 13.048ZM13.848 13.048C13.7706 13.048 13.7066 13.112 13.7066 13.1893V13.8986H14.48C14.56 13.8986 14.6213 13.8346 14.6213 13.7573V13.048H13.848ZM17.8293 13.048H15.096V13.7573C15.096 14.0986 14.8186 14.3733 14.48 14.3733H13.7066V17.1706C13.7066 17.248 13.7706 17.312 13.848 17.312H17.8293C17.9093 17.312 17.9706 17.248 17.9706 17.1706V13.1893C17.9706 13.1093 17.9066 13.048 17.8293 13.048ZM14.48 9.63464H12.0453V10.6453C12.0453 10.984 11.7706 11.2613 11.4293 11.2613H10.3546V13.7573C10.3546 13.8373 10.4186 13.8986 10.496 13.8986H13.2293V13.1893C13.2293 12.848 13.5066 12.5733 13.8453 12.5733H14.6186V9.77597C14.6186 9.69864 14.5546 9.63464 14.4773 9.63464H14.48ZM11.5733 10.6453V9.63464H10.4986C10.4186 9.63464 10.3573 9.69864 10.3573 9.77597V10.7866H11.432C11.512 10.7866 11.5733 10.7226 11.5733 10.6453ZM11.432 6.51997H7.45064C7.3733 6.51997 7.3093 6.58397 7.3093 6.6613V10.6426C7.3093 10.7226 7.3733 10.784 7.45064 10.784H9.8853V9.7733C9.8853 9.43464 10.1626 9.1573 10.5013 9.1573H11.576V6.6613C11.576 6.5813 11.512 6.51997 11.4346 6.51997H11.432ZM13.8506 13.048C13.7733 13.048 13.7093 13.112 13.7093 13.1893V13.8986H14.4826C14.5626 13.8986 14.624 13.8346 14.624 13.7573V13.048H13.8506ZM17.832 13.048H15.0986V13.7573C15.0986 14.0986 14.8213 14.3733 14.4826 14.3733H13.7093V17.1706C13.7093 17.248 13.7733 17.312 13.8506 17.312H17.832C17.912 17.312 17.9733 17.248 17.9733 17.1706V13.1893C17.9733 13.1093 17.9093 13.048 17.832 13.048ZM11.432 6.51997H7.45064C7.3733 6.51997 7.3093 6.58397 7.3093 6.6613V10.6426C7.3093 10.7226 7.3733 10.784 7.45064 10.784H9.8853V9.7733C9.8853 9.43464 10.1626 9.1573 10.5013 9.1573H11.576V6.6613C11.576 6.5813 11.512 6.51997 11.4346 6.51997H11.432Z" fill="#3399FF"/>
<path d="M35.9468 20.3174L32.7094 8.91469H32.6108C32.6401 9.21069 32.6694 9.61068 32.7041 10.1174C32.7361 10.624 32.7681 11.168 32.7974 11.752C32.8268 12.336 32.8401 12.8987 32.8401 13.4427V20.32H29.0508V4.48535H34.7468L38.0508 15.7254H38.1361L41.3734 4.48535H47.0801V20.3174H43.1494V13.376C43.1494 12.8774 43.1574 12.3414 43.1761 11.768C43.1948 11.1947 43.2161 10.6534 43.2401 10.144C43.2641 9.63469 43.2881 9.23202 43.3094 8.93602H43.2108L40.0161 20.3174H35.9441H35.9468Z" fill="#3399FF"/>
<path d="M55.211 7.83203C56.403 7.83203 57.4297 8.04003 58.2963 8.45603C59.163 8.87203 59.8297 9.49336 60.299 10.3254C60.7683 11.1547 61.003 12.1947 61.003 13.4454V15.3307H53.4323C53.4697 15.9734 53.7097 16.5014 54.1523 16.912C54.595 17.3227 55.251 17.528 56.1177 17.528C56.883 17.528 57.5843 17.4534 58.2243 17.3014C58.8643 17.1494 59.523 16.9147 60.2003 16.5974V19.64C59.6083 19.9494 58.963 20.1787 58.2617 20.3227C57.5603 20.4667 56.6777 20.5387 55.6083 20.5387C54.3737 20.5387 53.2697 20.3174 52.2937 19.8774C51.3203 19.4374 50.5523 18.7547 49.9923 17.8294C49.4323 16.9067 49.1523 15.7174 49.1523 14.2667C49.1523 12.816 49.4057 11.584 49.9097 10.6347C50.4137 9.68536 51.123 8.98136 52.0323 8.5227C52.9417 8.06403 54.0003 7.8347 55.2057 7.8347L55.211 7.83203ZM55.363 10.712C54.8643 10.712 54.4483 10.8694 54.1123 11.184C53.7763 11.4987 53.579 11.992 53.523 12.6614H57.1603C57.1523 12.3014 57.0803 11.9734 56.9443 11.6747C56.8083 11.3787 56.6057 11.144 56.3443 10.9707C56.0803 10.7974 55.755 10.712 55.363 10.712Z" fill="#3399FF"/>
<path d="M66.6536 20.5333C65.3896 20.5333 64.3496 19.9947 63.5336 18.92C62.7176 17.8453 62.3096 16.2693 62.3096 14.1973C62.3096 12.1253 62.7282 10.52 63.5656 9.44268C64.4029 8.36801 65.4856 7.82934 66.8136 7.82934C67.3629 7.82934 67.8349 7.90934 68.2322 8.06668C68.6296 8.22668 68.9736 8.44001 69.2669 8.71201C69.5602 8.98401 69.8136 9.28801 70.0296 9.62667H70.1149C70.0642 9.31734 70.0162 8.88801 69.9736 8.34401C69.9309 7.80001 69.9096 7.26667 69.9096 6.74667V3.46667H74.1762V20.3173H70.9816L70.0722 18.768H69.9096C69.7149 19.0933 69.4722 19.3893 69.1789 19.656C68.8856 19.9227 68.5336 20.136 68.1176 20.296C67.7016 20.4533 67.2136 20.5333 66.6509 20.5333H66.6536ZM68.3869 17.1867C69.0642 17.1867 69.5442 16.9707 69.8216 16.5413C70.0989 16.112 70.2482 15.456 70.2722 14.576V14.24C70.2722 13.272 70.1362 12.5307 69.8669 12.0133C69.5949 11.496 69.0882 11.24 68.3442 11.24C67.8376 11.24 67.4189 11.4853 67.0882 11.976C66.7549 12.4667 66.5896 13.2293 66.5896 14.2613C66.5896 15.2933 66.7576 16.0213 67.0936 16.488C67.4296 16.9547 67.8616 17.1867 68.3869 17.1867Z" fill="#3399FF"/>
<path d="M78.7817 3.46667V7.68001C78.7817 8.16267 78.7684 8.63201 78.7444 9.08801C78.7177 9.54401 78.699 9.89601 78.6857 10.1493H78.7844C79.1097 9.61601 79.579 9.16267 80.1924 8.79467C80.8057 8.42667 81.5897 8.24267 82.5417 8.24267C84.0297 8.24267 85.2137 8.75734 86.099 9.78668C86.9844 10.816 87.4244 12.344 87.4244 14.3733C87.4244 15.7093 87.2217 16.8347 86.819 17.752C86.4137 18.6693 85.8457 19.3627 85.107 19.832C84.371 20.3013 83.5017 20.536 82.4964 20.536C81.5577 20.536 80.787 20.36 80.1844 20.0107C79.5817 19.6613 79.1177 19.232 78.7924 18.728H78.651L78.283 20.32H76.9844V3.46667H78.7817ZM82.2457 9.74668C81.387 9.74668 80.7044 9.91467 80.1977 10.2507C79.691 10.5867 79.3284 11.0907 79.1097 11.768C78.8884 12.4427 78.779 13.296 78.779 14.328V14.4267C78.779 15.92 79.027 17.064 79.5257 17.8533C80.0244 18.6427 80.9284 19.04 82.243 19.04C83.347 19.04 84.1764 18.6347 84.7284 17.8267C85.2804 17.0187 85.5577 15.864 85.5577 14.3627C85.5577 12.8613 85.2857 11.68 84.739 10.9093C84.195 10.136 83.363 9.74934 82.243 9.74934L82.2457 9.74668Z" fill="#66CC66"/>
<path d="M91.8051 20.3173H89.9971V3.46667H91.8051V20.3173Z" fill="#66CC66"/>
<path d="M105.275 14.36C105.275 15.3334 105.15 16.2054 104.897 16.9707C104.643 17.736 104.281 18.3814 103.803 18.9094C103.326 19.4374 102.75 19.84 102.075 20.1174C101.401 20.3947 100.638 20.5334 99.7845 20.5334C98.9898 20.5334 98.2618 20.3947 97.6032 20.1174C96.9445 19.84 96.3712 19.4374 95.8912 18.9094C95.4112 18.3814 95.0405 17.736 94.7765 16.9707C94.5125 16.2054 94.3818 15.336 94.3818 14.36C94.3818 13.0614 94.6032 11.9547 95.0432 11.04C95.4832 10.128 96.1125 9.42937 96.9338 8.94937C97.7525 8.46937 98.7285 8.22937 99.8618 8.22937C100.995 8.22937 101.891 8.47204 102.705 8.9547C103.518 9.43737 104.147 10.136 104.601 11.0507C105.051 11.9654 105.278 13.0667 105.278 14.36H105.275ZM96.2432 14.36C96.2432 15.312 96.3685 16.1387 96.6218 16.84C96.8752 17.5414 97.2645 18.0827 97.7925 18.464C98.3205 18.848 98.9978 19.0374 99.8272 19.0374C100.657 19.0374 101.326 18.8454 101.857 18.464C102.387 18.0827 102.779 17.5414 103.033 16.84C103.286 16.1387 103.411 15.312 103.411 14.36C103.411 13.408 103.286 12.5974 103.033 11.9067C102.779 11.2187 102.39 10.6854 101.862 10.3094C101.334 9.93337 100.651 9.7467 99.8138 9.7467C98.5792 9.7467 97.6752 10.1547 97.1018 10.9707C96.5285 11.7867 96.2405 12.9174 96.2405 14.36H96.2432Z" fill="#66CC66"/>
<path d="M112.584 20.5334C111.515 20.5334 110.573 20.3121 109.757 19.8721C108.941 19.4321 108.307 18.7601 107.851 17.8587C107.395 16.9574 107.168 15.8187 107.168 14.4481C107.168 13.0774 107.408 11.8374 107.888 10.9227C108.368 10.0107 109.029 9.33339 109.875 8.89339C110.72 8.45339 111.68 8.23206 112.755 8.23206C113.347 8.23206 113.92 8.29072 114.472 8.41072C115.024 8.53072 115.477 8.68006 115.832 8.86139L115.291 10.3654C114.931 10.2214 114.512 10.0907 114.04 9.97606C113.568 9.86139 113.125 9.80272 112.715 9.80272C111.891 9.80272 111.208 9.97872 110.661 10.3334C110.117 10.6881 109.709 11.2081 109.437 11.8934C109.165 12.5787 109.032 13.4241 109.032 14.4267C109.032 15.4294 109.163 16.2054 109.427 16.8854C109.691 17.5654 110.083 18.0827 110.608 18.4401C111.131 18.7974 111.787 18.9761 112.573 18.9761C113.203 18.9761 113.768 18.9094 114.275 18.7761C114.779 18.6427 115.237 18.4854 115.651 18.3041V19.9067C115.253 20.1094 114.811 20.2641 114.325 20.3734C113.84 20.4827 113.259 20.5361 112.587 20.5361L112.584 20.5334Z" fill="#66CC66"/>
</svg>
