<svg width="24" height="24" viewBox="0 0 24 24" fill="none" xmlns="http://www.w3.org/2000/svg">
<path d="M4.5 2.25V21.75H19.5V2.25H4.5ZM6 3.75H18V20.25H6V3.75ZM11.5545 7.758C11.3078 7.75547 11.0678 7.83812 10.875 7.992C10.6845 8.15325 10.5975 8.3535 10.5465 8.5545C10.4438 8.958 10.4738 9.3795 10.5705 9.8445C10.683 10.3883 11.0108 11.0445 11.2733 11.6722C11.1398 12.2445 11.1052 12.7485 10.8983 13.3358C10.722 13.8413 10.497 14.1307 10.2907 14.5785C9.81825 14.757 9.25575 14.8635 8.88375 15.0945C8.48325 15.3435 8.13225 15.6195 7.92375 16.0095C7.71375 16.3973 7.73625 16.947 8.016 17.3445C8.15475 17.5522 8.33625 17.7172 8.5785 17.8132C8.8215 17.9092 9.08475 17.913 9.306 17.8358C9.747 17.6842 10.0605 17.3445 10.3597 16.9462C10.6372 16.5772 10.836 15.9502 11.0872 15.4462C11.4653 15.3202 11.7382 15.1612 12.141 15.0712C12.564 14.9767 12.846 15.0225 13.2435 14.9775C13.4138 15.171 13.5585 15.48 13.7347 15.633C14.0925 15.9427 14.4847 16.1903 14.9535 16.218C15.423 16.248 15.891 15.9555 16.149 15.516H16.173V15.492C16.287 15.2917 16.3657 15.0773 16.3605 14.8358C16.356 14.5957 16.233 14.3453 16.0792 14.1803C15.7717 13.8502 15.3795 13.7677 14.9542 13.7115C14.628 13.6695 14.1705 13.7865 13.7828 13.806C13.4438 13.359 13.1055 13.0215 12.798 12.447C12.633 12.1365 12.5865 11.8717 12.447 11.556C12.5543 11.046 12.7695 10.479 12.798 10.0335C12.834 9.4935 12.813 9.0285 12.6578 8.60325C12.5787 8.37622 12.4416 8.17378 12.2603 8.016C12.0685 7.8568 11.8291 7.76625 11.58 7.75875H11.556L11.5545 7.758ZM12.0465 13.3125C12.1815 13.5495 12.348 13.7002 12.492 13.9222C12.2805 13.9598 12.12 13.9207 11.907 13.9688C11.8695 13.9762 11.8485 14.0062 11.8125 14.016C11.8552 13.8997 11.9115 13.8285 11.9535 13.7108C12.0015 13.5743 12.0015 13.4505 12.0465 13.3125ZM14.8125 14.835C15.0653 14.8688 15.1538 14.9152 15.1875 14.9295C15.1823 14.9415 15.1965 14.937 15.1875 14.9535C15.0953 15.1073 15.0825 15.0975 15.0225 15.0938C14.973 15.0907 14.7825 14.9873 14.6025 14.859C14.655 14.8635 14.7645 14.829 14.8125 14.8365V14.835ZM9.5625 16.008C9.52125 16.068 9.486 16.212 9.4455 16.2653C9.21675 16.5697 9.006 16.7122 8.9535 16.734C8.94375 16.7242 8.9685 16.734 8.9535 16.7115H8.9295C8.85225 16.6012 8.8755 16.6477 8.9295 16.5465C8.98425 16.446 9.162 16.245 9.4695 16.0545C9.492 16.041 9.53925 16.0215 9.5625 16.008Z" fill="#E85151"/>
</svg>
